<svg width="321" height="44" viewBox="0 0 321 44" fill="none" xmlns="http://www.w3.org/2000/svg">
<path d="M85.5172 13.9831V0.605225H92.4099V2.08754H87.2219V6.38624H92.0394V7.86856H87.2219V12.5008H92.5211V13.9831H85.5172Z" fill="#011E41"/>
<path d="M95.1151 13.9831V0.605225H96.8198V12.5008H101.761V13.9831H95.1151Z" fill="#011E41"/>
<path d="M105.751 13.9831H104.046V0.605225H105.751V13.9831Z" fill="#011E41"/>
<path d="M116.46 2.30988L109.827 12.5008H116.609V13.9831H108.246V12.0561L114.731 2.17401H108.468V0.605225H116.46V2.30988Z" fill="#011E41"/>
<path d="M122.649 0.605225H124.823L129.171 13.9831H127.232L126.268 10.7961H121.13L120.129 13.9831H118.412L122.649 0.605225ZM123.687 2.17401L121.562 9.31381H125.836L123.687 2.17401Z" fill="#011E41"/>
<path d="M131.592 13.9831V0.605186H135.941C136.518 0.522801 137.107 0.608272 137.637 0.851398C138.167 1.09452 138.616 1.48504 138.93 1.97633C139.251 2.4983 139.434 3.09347 139.461 3.70569C139.524 4.07141 139.513 4.44611 139.429 4.80747C139.344 5.16883 139.187 5.50947 138.968 5.80912C138.749 6.10877 138.472 6.36131 138.154 6.5517C137.835 6.74209 137.482 6.86645 137.114 6.91737V7.01619C137.511 7.02681 137.901 7.1205 138.26 7.29121C138.618 7.46192 138.937 7.70587 139.195 8.00731C139.454 8.30876 139.646 8.66101 139.76 9.04135C139.874 9.42169 139.907 9.82168 139.856 10.2155C139.856 13.6495 137.386 13.9831 135.842 13.9831H131.592ZM133.297 6.23798H135.768C136.046 6.2554 136.324 6.21067 136.583 6.10705C136.842 6.00343 137.074 5.84352 137.263 5.63891C137.453 5.4343 137.594 5.19013 137.677 4.92412C137.76 4.65811 137.783 4.37693 137.744 4.10098C137.765 3.82798 137.726 3.55369 137.63 3.29732C137.534 3.04095 137.383 2.80871 137.187 2.61688C136.992 2.42505 136.757 2.27826 136.499 2.18681C136.241 2.09537 135.966 2.06147 135.693 2.0875H133.223L133.297 6.23798ZM133.297 12.5008H135.768C136.084 12.5303 136.403 12.4929 136.703 12.391C137.004 12.2891 137.28 12.1251 137.513 11.9095C137.746 11.6939 137.931 11.4316 138.056 11.1398C138.181 10.8479 138.243 10.533 138.238 10.2155C138.238 8.09087 136.929 7.745 135.187 7.745H133.371L133.297 12.5008Z" fill="#011E41"/>
<path d="M142.759 13.9831V0.605225H149.652V2.08754H144.526V6.38624H149.343V7.86856H144.526V12.5008H149.825V13.9831H142.759Z" fill="#011E41"/>
<path d="M160.399 0.605225V2.08754H156.878V13.9831H155.174V2.08754H151.653V0.605225H160.399Z" fill="#011E41"/>
<path d="M162.758 13.9831V0.605225H164.463V6.38625H169.157V0.605225H170.861V13.9831H169.157V7.86856H164.463V14.0449L162.758 13.9831Z" fill="#011E41"/>
<path d="M176.643 0.605225H178.458L180.929 12.2043L183.758 0.605225H185.956L188.427 12.2043L191.144 0.605225H192.923L189.39 13.9831H187.315L184.77 2.384L182.065 13.9831H179.99L176.643 0.605225Z" fill="#011E41"/>
<path d="M195.171 13.9831V0.605225H202.064V2.08754H196.876V6.38624H201.693V7.86856H196.876V12.5008H202.175V13.9831H195.171Z" fill="#011E41"/>
<path d="M206.585 13.9831H204.88V0.605225H206.585V13.9831Z" fill="#011E41"/>
<path d="M211.106 9.99336V10.3886C211.065 10.6998 211.094 11.0161 211.19 11.3148C211.286 11.6135 211.448 11.8869 211.663 12.1152C211.879 12.3435 212.142 12.521 212.435 12.6347C212.727 12.7485 213.041 12.7956 213.354 12.7727C214.701 12.7727 215.738 12.2045 215.738 10.611C215.738 7.64636 209.735 7.97988 209.735 3.95293C209.717 3.44203 209.81 2.93328 210.007 2.46178C210.205 1.99029 210.503 1.5673 210.88 1.22202C211.257 0.876732 211.704 0.617379 212.191 0.461864C212.678 0.30635 213.193 0.258379 213.7 0.321265C216.171 0.321265 217.517 1.55653 217.406 4.23704H215.627C215.627 2.76708 215.183 1.76652 213.577 1.76652C213.308 1.73754 213.037 1.7672 212.781 1.85345C212.525 1.93969 212.291 2.08048 212.095 2.26606C211.899 2.45164 211.745 2.67761 211.645 2.92833C211.544 3.17906 211.5 3.44857 211.514 3.71823C211.514 6.67051 217.517 6.18875 217.517 10.4875C217.517 13.3039 215.578 14.1932 213.367 14.1932C209.426 14.1932 209.426 11.2163 209.463 9.93159L211.106 9.99336Z" fill="#011E41"/>
<path d="M220.222 13.9831V0.605225H227.115V2.08754H221.927V6.38624H226.745V7.86856H221.927V12.5008H227.288V13.9831H220.222Z" fill="#011E41"/>
<path d="M231.476 7.83165V14.008H229.759V0.605368H234.366C234.806 0.575959 235.247 0.643101 235.659 0.802093C236.07 0.961084 236.442 1.20808 236.748 1.52579C237.054 1.8435 237.287 2.22425 237.43 2.64137C237.573 3.05849 237.624 3.50191 237.578 3.94057C237.629 4.6674 237.402 5.38647 236.944 5.95272C236.485 6.51897 235.829 6.89025 235.107 6.99167C236.639 7.23872 237.195 7.75753 237.294 10.438C237.34 11.6188 237.493 12.7929 237.751 13.9462H235.972C235.49 13.0197 235.601 11.278 235.453 9.49925C235.443 9.25509 235.383 9.01569 235.275 8.79637C235.167 8.57705 235.015 8.38266 234.828 8.22566C234.64 8.06866 234.422 7.95252 234.188 7.88466C233.953 7.81681 233.707 7.79875 233.464 7.83165H231.476ZM231.476 6.34933H234.033C235.268 6.34933 235.848 5.28701 235.848 4.12586C235.88 3.87046 235.857 3.61127 235.781 3.36549C235.704 3.11971 235.577 2.89294 235.406 2.70021C235.236 2.50749 235.026 2.35321 234.791 2.24761C234.557 2.14201 234.302 2.0875 234.045 2.08768H231.476V6.34933Z" fill="#011E41"/>
<path d="M250.116 4.28629C250.2 3.61398 250.061 2.93251 249.72 2.34693C249.329 1.98536 248.82 1.77891 248.288 1.76636C247.884 1.7259 247.478 1.80364 247.118 1.99008C246.759 2.17652 246.461 2.4636 246.262 2.81633C246.262 2.95221 245.879 3.28573 245.879 5.58331V9.16557C245.879 12.439 246.953 12.8714 248.263 12.8714C248.782 12.8714 250.363 12.6861 250.375 10.0673H252.142C252.216 14.2919 249.226 14.2919 248.362 14.2919C246.694 14.2919 244.137 14.1807 244.137 8.99263V5.28685C244.137 1.50695 245.805 0.419922 248.436 0.419922C251.067 0.419922 252.142 1.79106 251.932 4.38511L250.116 4.28629Z" fill="#011E41"/>
<path d="M257.984 0.605225H260.146L264.507 13.9831H262.592L261.628 10.7961H256.465L255.464 13.9831H253.735L257.984 0.605225ZM259.022 2.17401L256.934 9.31381H261.221L259.022 2.17401Z" fill="#011E41"/>
<path d="M267.965 9.99334V10.3886C267.924 10.6986 267.953 11.0139 268.048 11.3116C268.144 11.6093 268.305 11.882 268.519 12.1101C268.733 12.3382 268.994 12.5159 269.285 12.6305C269.576 12.7451 269.889 12.7937 270.201 12.7727C271.56 12.7727 272.598 12.2045 272.598 10.611C272.598 7.64634 266.594 7.97986 266.594 3.95291C266.577 3.44552 266.669 2.94034 266.864 2.47177C267.06 2.0032 267.354 1.58225 267.727 1.2376C268.099 0.892956 268.542 0.632703 269.025 0.474571C269.507 0.316439 270.018 0.264143 270.522 0.321247C272.993 0.321247 274.339 1.55651 274.228 4.23702H272.449C272.449 2.76706 272.005 1.7665 270.386 1.7665C270.119 1.73944 269.849 1.77052 269.594 1.85764C269.34 1.94475 269.107 2.08582 268.913 2.27119C268.718 2.45656 268.566 2.68184 268.466 2.93161C268.366 3.18137 268.322 3.4497 268.336 3.71821C268.336 6.67049 274.339 6.18873 274.339 10.4874C274.339 13.3038 272.388 14.1932 270.189 14.1932C266.236 14.1932 266.236 11.2162 266.273 9.93157L267.965 9.99334Z" fill="#011E41"/>
<path d="M276.056 0.605225H277.934L280.404 12.2043L283.122 0.605225H285.345L287.816 12.2043L290.534 0.605225H292.312L288.779 13.9831H286.704L284.11 2.384L281.405 13.9831H279.33L276.056 0.605225Z" fill="#011E41"/>
<path d="M294.573 13.9831V0.605225H301.466V2.08754H296.265V6.38624H301.083V7.86856H296.265V12.5008H301.577V13.9831H294.573Z" fill="#011E41"/>
<path d="M304.134 13.9831V0.605225H305.838V12.5008H310.779V13.9831H304.134Z" fill="#011E41"/>
<path d="M312.978 13.9831V0.605225H314.683V12.5008H319.624V13.9831H312.978Z" fill="#011E41"/>
<path d="M85.5542 17.8989H89.6676C90.4039 17.8258 91.1448 17.9825 91.7884 18.3474C92.4321 18.7124 92.9469 19.2677 93.2622 19.9371C93.6894 21.3039 93.8979 22.7297 93.8799 24.1617C93.8799 27.0151 93.6205 28.658 93.0646 29.5474C92.3481 30.6962 90.9893 31.2768 88.6547 31.2768H85.5542V17.8989ZM87.2589 29.7944H88.9388C91.3105 29.7944 92.1752 28.9051 92.1752 25.7922V23.087C92.1752 20.3818 91.3476 19.3812 89.5688 19.3812H87.2589V29.7944Z" fill="#011E41"/>
<path d="M98.6109 31.2768H96.9062V17.8989H98.6109V31.2768Z" fill="#011E41"/>
<path d="M105.257 17.8989H107.468L111.816 31.2768H109.938L108.975 28.0898H103.762L102.774 31.2768H101.044L105.257 17.8989ZM106.294 19.4677L104.207 26.6075H108.481L106.294 19.4677Z" fill="#011E41"/>
<path d="M114.2 31.2768V17.8989H118.585C119.162 17.8165 119.751 17.902 120.281 18.1451C120.811 18.3882 121.26 18.7787 121.574 19.27C121.883 19.7955 122.053 20.3905 122.069 20.9994C122.133 21.358 122.125 21.7256 122.047 22.0813C121.968 22.437 121.82 22.7737 121.611 23.0721C121.403 23.3705 121.137 23.6247 120.829 23.8201C120.522 24.0156 120.179 24.1484 119.82 24.2111V24.3099C120.217 24.3205 120.608 24.4142 120.966 24.5849C121.324 24.7556 121.643 24.9996 121.902 25.301C122.16 25.6025 122.352 25.9547 122.466 26.335C122.58 26.7154 122.613 27.1154 122.563 27.5092C122.563 30.9432 120.092 31.2768 118.548 31.2768H114.2ZM115.905 23.5317H118.375C118.653 23.5491 118.932 23.5044 119.191 23.4008C119.449 23.2971 119.682 23.1372 119.871 22.9326C120.06 22.728 120.201 22.4838 120.285 22.2178C120.368 21.9518 120.391 21.6706 120.352 21.3947C120.373 21.1217 120.334 20.8474 120.238 20.591C120.141 20.3347 119.99 20.1024 119.795 19.9106C119.6 19.7187 119.365 19.572 119.107 19.4805C118.849 19.3891 118.574 19.3552 118.301 19.3812H115.83L115.905 23.5317ZM115.905 29.7945H118.375C118.691 29.824 119.01 29.7866 119.311 29.6847C119.611 29.5828 119.887 29.4188 120.12 29.2032C120.353 28.9876 120.539 28.7253 120.663 28.4335C120.788 28.1416 120.851 27.8267 120.846 27.5092C120.846 25.3846 119.536 25.0387 117.795 25.0387H115.905V29.7945Z" fill="#011E41"/>
<path d="M125.367 31.2768V17.8989H132.259V19.3812H127.071V23.68H131.889V25.1623H127.071V29.7945H132.371V31.2768H125.367Z" fill="#011E41"/>
<path d="M143.006 17.8989V19.3812H139.486V31.2768H137.781V19.3812H134.261V17.8989H143.006Z" fill="#011E41"/>
<path d="M145.316 31.2768V17.8989H152.209V19.3812H146.996V23.68H151.814V25.1623H146.996V29.7945H152.295V31.2768H145.316Z" fill="#011E41"/>
<path d="M156.248 27.2869V27.6822C156.209 27.9928 156.24 28.3083 156.337 28.6059C156.434 28.9036 156.596 29.176 156.811 29.4038C157.026 29.6316 157.288 29.8091 157.579 29.9237C157.871 30.0382 158.184 30.0868 158.496 30.0662C159.855 30.0662 160.88 29.498 160.88 27.9045C160.88 24.9399 154.89 25.2734 154.89 21.2465C154.872 20.7402 154.964 20.2362 155.159 19.7686C155.354 19.301 155.647 18.8807 156.018 18.5363C156.389 18.1919 156.83 17.9313 157.311 17.7723C157.792 17.6133 158.302 17.5596 158.805 17.6148C161.276 17.6148 162.622 18.85 162.511 21.5306H160.732C160.732 20.0606 160.288 19.06 158.682 19.06C158.414 19.033 158.144 19.0641 157.89 19.1512C157.635 19.2383 157.403 19.3794 157.208 19.5647C157.013 19.7501 156.861 19.9754 156.761 20.2251C156.662 20.4749 156.617 20.7432 156.631 21.0118C156.631 23.964 162.622 23.4823 162.622 27.781C162.622 30.5974 160.683 31.4868 158.484 31.4868C154.531 31.4868 154.531 28.5098 154.568 27.2251L156.248 27.2869Z" fill="#011E41"/>
<path d="M171.281 31.2768H169.577V17.8989H171.281V31.2768Z" fill="#011E41"/>
<path d="M183.646 17.8989V31.2768H181.312L176.037 19.6777V31.2768H174.518V17.8989H176.926L182.127 29.3498V17.8989H183.646Z" fill="#011E41"/>
<path d="M188.13 27.2868V27.6821C188.089 27.9932 188.118 28.3096 188.214 28.6083C188.311 28.9069 188.472 29.1804 188.688 29.4087C188.903 29.637 189.166 29.8145 189.459 29.9282C189.751 30.0419 190.066 30.0891 190.379 30.0662C191.725 30.0662 192.763 29.4979 192.763 27.9044C192.763 24.9398 186.759 25.2733 186.759 21.2464C186.742 20.739 186.834 20.2338 187.029 19.7652C187.225 19.2967 187.519 18.8757 187.892 18.5311C188.264 18.1864 188.707 17.9262 189.19 17.768C189.672 17.6099 190.183 17.5576 190.687 17.6147C193.158 17.6147 194.504 18.85 194.393 21.5305H192.614C192.614 20.0605 192.17 19.06 190.564 19.06C190.295 19.031 190.024 19.0606 189.768 19.1469C189.512 19.2331 189.278 19.3739 189.082 19.5595C188.886 19.7451 188.732 19.971 188.632 20.2218C188.531 20.4725 188.487 20.742 188.501 21.0117C188.501 23.964 194.504 23.4822 194.504 27.7809C194.504 30.5973 192.565 31.4867 190.354 31.4867C186.413 31.4867 186.413 28.5097 186.45 27.225L188.13 27.2868Z" fill="#011E41"/>
<path d="M205.214 17.8989V19.3812H201.694V31.2768H199.989V19.3812H196.468V17.8989H205.214Z" fill="#011E41"/>
<path d="M209.34 31.2768H207.635V17.8989H209.34V31.2768Z" fill="#011E41"/>
<path d="M220.482 17.8989V19.3812H216.961V31.2768H215.257V19.3812H211.736V17.8989H220.482Z" fill="#011E41"/>
<path d="M222.767 17.8989H224.472V26.4593C224.472 29.3869 225.361 30.1651 226.942 30.1651C228.523 30.1651 229.413 29.4239 229.413 26.4593V17.8989H231.117V26.3852C231.117 30.091 229.746 31.5486 226.918 31.5486C224.089 31.5486 222.705 30.091 222.705 26.3852L222.767 17.8989Z" fill="#011E41"/>
<path d="M242.222 17.8989V19.3812H238.702V31.2768H236.997V19.3812H233.464V17.8989H242.222Z" fill="#011E41"/>
<path d="M244.582 31.2768V17.8989H251.475V19.3812H246.286V23.68H251.104V25.1623H246.286V29.7945H251.586V31.2768H244.582Z" fill="#011E41"/>
<path d="M72.9422 0.580566H72.3246V43.3947H72.9422V0.580566Z" fill="#011E41"/>
<path d="M30.3504 35.9214L18.0843 19.1589V31.3509H22.9636V43.3824H0.420044V31.3509H4.9411V12.612H0.420044V0.580566H18.1337L30.3504 17.4542L42.5795 0.580566H60.2808V12.612H55.7103V31.3509H60.2808V43.3824H37.7373V31.3509H42.6042V19.1589L30.3504 35.9214Z" fill="#F3C300"/>
<path d="M232.785 43.37V42.95C233.316 42.95 233.736 42.8759 233.736 42.4312C233.727 42.2707 233.694 42.1124 233.637 41.9618L233.403 41.1712H230.636L230.389 41.8383C230.328 41.9961 230.294 42.1632 230.29 42.3324C230.29 42.8883 230.87 42.9253 231.352 42.95V43.37H228.103V42.95C228.931 42.95 229.203 42.7524 229.499 41.9248L231.636 36.0696L231.513 35.8843C232.079 35.747 232.612 35.4994 233.082 35.1555C233.23 35.6867 233.255 35.7608 233.427 36.3167L235.182 41.6777C235.49 42.6289 235.639 42.913 236.417 42.913V43.333L232.785 43.37ZM232.081 37.0578L230.92 40.3313H233.18L232.081 37.0578ZM204.633 41.6283C204.311 42.235 203.825 42.7401 203.232 43.0869C202.639 43.4337 201.961 43.6087 201.274 43.5924C200.743 43.6053 200.216 43.5079 199.725 43.3063C199.234 43.1047 198.79 42.8033 198.422 42.4212C198.054 42.0391 197.769 41.5846 197.586 41.0866C197.403 40.5886 197.325 40.058 197.358 39.5283C197.318 38.9833 197.393 38.436 197.576 37.9212C197.759 37.4064 198.048 36.9354 198.423 36.5382C198.798 36.1409 199.252 35.826 199.756 35.6134C200.259 35.4009 200.801 35.2955 201.348 35.3038C202.305 35.285 203.234 35.6242 203.954 36.2549L204.485 35.7608V38.1572L204.127 38.219C203.967 37.695 203.678 37.2194 203.287 36.8355C203.077 36.6016 202.823 36.4122 202.538 36.2785C202.254 36.1448 201.946 36.0696 201.632 36.0573C200.211 36.0573 199.087 37.2184 199.087 39.2689C199.087 40.9983 200.014 42.6289 201.829 42.6289C202.304 42.6486 202.775 42.5309 203.185 42.2899C203.594 42.0489 203.926 41.6948 204.139 41.2701L204.633 41.6283ZM205.968 43.37V42.95C206.857 42.8759 206.869 42.6783 206.869 41.9248C206.869 41.6406 206.869 41.3689 206.869 41.0848V37.7866C206.891 37.3751 206.891 36.9628 206.869 36.5514C206.869 36.0943 206.598 36.0202 205.992 35.9708V35.5385H209.365V35.9708C208.698 36.0326 208.463 36.0573 208.376 36.4896C208.346 36.9255 208.346 37.363 208.376 37.799V38.886C209.056 38.886 209.525 38.886 210.192 38.886C210.859 38.886 211.427 38.886 212.057 38.886V37.5149C212.057 36.0696 212.057 36.0202 210.97 35.9214V35.489H214.38V35.9214C213.466 36.0326 213.466 36.0449 213.466 37.5396V40.8624C213.466 41.1712 213.466 42.1718 213.466 42.4065C213.466 42.6412 213.75 42.8883 214.33 42.95V43.37H210.921V42.95C211.712 42.8636 211.922 42.8389 211.996 42.2953C211.996 42.073 211.996 41.7642 211.996 41.1959V39.7507C211.378 39.7507 210.859 39.7507 210.205 39.7507C209.55 39.7507 208.969 39.7507 208.315 39.7507V41.1959C208.315 42.8388 208.315 42.8388 209.365 42.95V43.37H205.968ZM215.689 43.37V42.95C216.467 42.8512 216.616 42.7647 216.628 41.9371V37.7372C216.628 36.0943 216.628 36.0449 215.689 35.9214V35.489H218.963V35.9214C218.036 36.0078 218.036 36.0449 218.036 37.7372V40.9242C218.036 41.196 218.036 42.0853 218.036 42.32C218.098 42.7894 218.32 42.913 218.925 42.95V43.37H215.689ZM193.232 43.37V42.95C194.01 42.8512 194.158 42.7647 194.171 41.9371V37.7372C194.171 36.0943 194.171 36.0449 193.232 35.9214V35.489H196.505V35.9214C195.579 36.0078 195.579 36.0449 195.579 37.7372V40.9242C195.579 41.196 195.579 42.0853 195.579 42.32C195.579 42.7894 195.851 42.913 196.468 42.95V43.37H193.232ZM188.291 43.37V42.95C189.279 42.8883 189.279 42.8388 189.292 41.3812V37.416L186.525 43.4688H185.833L183.301 37.2925V41.9248C183.301 42.703 183.399 42.8512 184.239 42.913V43.333H181.497V42.913C182.127 42.913 182.386 42.7894 182.423 42.2583C182.423 42.0483 182.423 41.3812 182.423 40.9489L182.535 37.6507C182.535 37.3913 182.535 37.0084 182.535 36.7243C182.535 35.9461 182.386 35.8967 181.682 35.8843V35.452H184.153L186.623 41.443L189.329 35.452H191.725V35.9214C190.786 35.9831 190.786 36.082 190.786 37.3049V40.5536C190.786 41.0971 190.786 41.7889 190.786 42.1718C190.786 42.5547 191.058 42.8512 191.676 42.913V43.333L188.291 43.37ZM237.01 43.37V42.95C237.652 42.95 237.899 42.95 237.986 42.4559C238.072 41.9618 238.134 37.2555 238.146 36.4402C238.005 36.2775 237.83 36.147 237.634 36.0575C237.438 35.968 237.225 35.9216 237.01 35.9214V35.489H239.369C240.036 36.4278 240.172 36.6378 241.333 38.0831L243.544 40.8007V37.2802C243.544 36.0449 243.544 35.9584 242.309 35.9214V35.489H245.41V35.9214C244.545 35.9214 244.471 36.1067 244.471 37.3913L244.347 43.4688H243.878L243.174 42.5918C242.828 42.1471 242.457 41.7024 242.111 41.2701L238.9 37.4284V41.5048C238.9 42.74 238.986 42.8265 240.135 42.95V43.37H237.01ZM171.244 39.4295C171.286 39.9684 171.214 40.5101 171.033 41.0194C170.852 41.5286 170.565 41.9941 170.193 42.3855C169.82 42.7769 169.369 43.0856 168.869 43.2913C168.369 43.4971 167.832 43.5955 167.291 43.58C166.744 43.5959 166.199 43.4986 165.691 43.294C165.183 43.0895 164.722 42.7821 164.338 42.3913C163.954 42.0005 163.655 41.5346 163.46 41.0228C163.265 40.511 163.177 39.9644 163.203 39.4172C163.172 38.8704 163.254 38.3232 163.442 37.809C163.631 37.2948 163.922 36.8245 164.298 36.4267C164.675 36.0289 165.128 35.712 165.631 35.4955C166.134 35.279 166.676 35.1673 167.224 35.1673C167.771 35.1673 168.313 35.279 168.816 35.4955C169.319 35.712 169.772 36.0289 170.149 36.4267C170.525 36.8245 170.816 37.2948 171.005 37.809C171.193 38.3232 171.275 38.8704 171.244 39.4172V39.4295ZM167.304 42.8512C167.624 42.8299 167.933 42.7295 168.205 42.5592C168.477 42.3889 168.702 42.154 168.86 41.8753C169.368 41.0834 169.594 40.1435 169.503 39.2072C169.506 38.3048 169.191 37.4301 168.613 36.7367C168.434 36.5355 168.216 36.3734 167.971 36.2608C167.727 36.1481 167.462 36.0872 167.193 36.082C166.925 36.0947 166.664 36.164 166.425 36.2854C166.187 36.4068 165.977 36.5774 165.809 36.7861C165.233 37.5002 164.943 38.4024 164.994 39.3184C164.933 40.2546 165.185 41.1847 165.71 41.9618C165.881 42.2253 166.113 42.4437 166.386 42.5986C166.659 42.7534 166.965 42.8401 167.279 42.8512H167.304ZM172.035 42.9377V43.37H175.296V42.9377C174.481 42.8636 174.382 42.7894 174.357 41.9248V39.6766H175.234C176.111 39.6766 176.581 39.763 176.642 40.6401H177.025V38.0337H176.642C176.642 38.886 176.358 38.9725 175.407 38.9725H174.357V36.2425C174.67 36.2179 174.984 36.2179 175.296 36.2425C176.84 36.2425 177.334 36.2425 177.544 37.4778H177.878L177.754 35.5385H171.973V35.9708C172.541 35.9708 172.788 36.0573 172.863 36.4278C172.911 36.8833 172.936 37.3409 172.937 37.799V40.566C172.937 40.7883 172.937 41.7395 172.937 41.9248C172.937 42.7894 172.825 42.8636 172.01 42.9377H172.035ZM104.268 43.37V42.9377C105.047 42.8388 105.195 42.7524 105.207 41.9248V37.7249C105.207 36.082 105.207 36.0449 104.268 35.909V35.4767H107.468V35.909C106.541 35.9955 106.541 36.0449 106.541 37.7249V40.9118C106.541 41.1836 106.541 42.073 106.541 42.3077C106.541 42.7894 106.825 42.9006 107.431 42.9377V43.37H104.268ZM139.004 43.37V42.9377C139.77 42.8388 139.93 42.7524 139.93 41.9248V37.7249C139.93 36.082 139.93 36.0449 139.004 35.909V35.4767H142.265V35.909C141.339 35.9955 141.339 36.0449 141.339 37.7249V40.9118C141.339 41.1836 141.339 42.073 141.339 42.3077C141.339 42.7894 141.623 42.9006 142.228 42.9377V43.37H139.004ZM94.6704 43.37V42.9377C95.3251 42.9377 95.5598 42.9377 95.6586 42.4436C95.7575 41.9495 95.7945 37.2431 95.8069 36.4278C95.6655 36.2651 95.491 36.1346 95.2949 36.0451C95.0989 35.9556 94.8859 35.9092 94.6704 35.909V35.4767H97.0421C97.6968 36.4155 97.845 36.6378 99.0062 38.0707L101.18 40.7636V37.2678C101.18 36.0326 101.18 35.9461 99.945 35.909V35.4767H103.045V35.909C102.193 35.909 102.107 36.0943 102.107 37.379L101.983 43.4688H101.526L100.822 42.5794L99.6856 41.2577L96.5727 37.416V41.5048C96.5727 42.74 96.6592 42.8141 97.808 42.9377V43.37H94.6704ZM132.482 40.8995H132.889C133.322 42.1347 134.051 42.8759 135.224 42.8759C136.064 42.8759 136.805 42.5177 136.805 41.6406C136.805 40.7636 135.941 40.4054 135.57 40.2448L134.606 39.8866C134.087 39.7732 133.621 39.4888 133.283 39.0789C132.945 38.669 132.754 38.1573 132.741 37.626C132.742 37.3097 132.808 36.997 132.935 36.7072C133.062 36.4174 133.246 36.1567 133.478 35.9413C133.71 35.7259 133.983 35.5604 134.281 35.4549C134.58 35.3495 134.896 35.3065 135.212 35.3285C135.856 35.3265 136.486 35.511 137.028 35.8596L137.509 35.5261L137.756 37.8607L137.373 37.9349C137.28 37.5101 137.09 37.1127 136.818 36.7737C136.639 36.5398 136.406 36.3525 136.14 36.2277C135.873 36.103 135.58 36.0445 135.286 36.0573C134.446 36.0573 133.952 36.4525 133.952 37.0825C133.952 38.0213 134.878 38.3178 135.768 38.6143C136.161 38.7286 136.541 38.8817 136.904 39.0713C137.253 39.2784 137.541 39.5733 137.741 39.9266C137.94 40.2798 138.043 40.6791 138.04 41.0848C138.027 41.4316 137.943 41.7722 137.794 42.0859C137.646 42.3997 137.436 42.6803 137.176 42.9109C136.917 43.1416 136.613 43.3175 136.284 43.4282C135.955 43.5389 135.607 43.5822 135.261 43.5553C134.532 43.5662 133.819 43.3456 133.223 42.9253L132.568 42.4559L132.482 40.8995ZM145.44 43.37V43.0365C146.169 43.0365 146.366 42.7524 146.366 42.1224V36.3167H145.39C144.501 36.3167 143.908 36.3167 143.834 37.6878H143.426V35.4767H150.591V37.6878H150.183C150.109 36.2796 149.528 36.3167 148.627 36.3167H147.651V42.1224C147.651 42.7524 147.848 43.0241 148.577 43.0365V43.37H145.44ZM88.6176 35.4767V35.909C87.5677 35.9831 87.5677 36.0202 87.5553 37.6878V39.5283C87.4632 40.4072 87.6489 41.2929 88.0865 42.0606C88.2543 42.2778 88.4725 42.4508 88.7221 42.5649C88.9717 42.6789 89.2453 42.7306 89.5194 42.7153C89.9804 42.7495 90.4382 42.6158 90.8082 42.3388C91.1783 42.0618 91.4357 41.6602 91.5328 41.2083C91.7281 40.2078 91.8069 39.1881 91.7676 38.1696C91.7676 37.8854 91.7676 36.9343 91.7676 36.6872C91.7676 35.9708 91.3476 35.9461 90.6558 35.8967V35.4643H93.6575V35.8967C92.9163 35.8967 92.7558 36.0449 92.7187 36.8355C92.6446 37.0578 92.6446 39.2195 92.6446 39.5283C92.6358 40.1221 92.5696 40.7137 92.4469 41.2948C92.2609 41.9714 91.8472 42.5633 91.2757 42.9705C90.7042 43.3778 90.0097 43.5756 89.3094 43.5306C88.5788 43.5464 87.8589 43.3536 87.2341 42.9747C85.9989 42.1842 85.9989 40.9983 85.9989 39.726V37.9596C85.9989 37.1072 85.9989 36.7243 85.9989 36.5267C85.9248 36.0449 85.6901 35.9461 85.0848 35.909V35.4767H88.6176ZM116.559 35.4767V35.909C115.806 36.0202 115.695 36.2302 115.052 37.799L112.656 43.5182H112.223L110.074 37.7002C109.543 36.2055 109.469 36.0326 108.678 35.909V35.4767H112.384V35.909C111.742 35.909 111.334 35.909 111.334 36.4155C111.365 36.7822 111.457 37.1411 111.606 37.4778L112.977 41.4924L114.583 37.3419C114.697 37.0775 114.776 36.7993 114.818 36.5143C114.818 35.9461 114.262 35.9214 113.768 35.909V35.4767H116.559ZM153.938 43.37V42.9377C154.556 42.9377 154.791 42.8512 154.939 42.6906C155.087 42.53 155.124 42.32 155.124 41.4554V40.0719L153.037 36.8231C152.468 35.9708 152.456 35.9461 151.702 35.909V35.4767H155.804V35.909C154.976 35.909 154.568 35.909 154.568 36.329C154.62 36.616 154.739 36.8867 154.914 37.1196L156.149 39.096L157.261 37.1319C157.417 36.8877 157.522 36.6146 157.57 36.329C157.57 35.9461 157.249 35.9461 156.693 35.909V35.4767H159.781V35.909C158.978 35.909 158.756 36.1684 157.854 37.6384L156.619 39.6889V41.3318C156.619 42.7647 156.619 42.8759 157.854 42.9377V43.37H153.938ZM123.316 43.37C123.316 42.8018 123.415 41.863 123.477 41.3195H123.106C122.834 42.7277 122.044 42.6659 120.907 42.6659C119.771 42.6659 119.672 42.3818 119.672 41.863V39.6642H120.512C121.488 39.6642 121.747 39.7507 121.747 40.6277H122.13V38.0337H121.747C121.673 38.7254 121.525 38.9601 120.512 38.9601H119.66V36.1808H120.623C121.97 36.1808 122.439 36.2796 122.624 37.3543H122.983V35.4767H117.35V35.909C117.918 35.909 118.153 35.9955 118.239 36.3661C118.265 36.8392 118.265 37.3135 118.239 37.7866V40.566C118.239 40.776 118.239 41.7271 118.239 41.9124C118.239 42.7771 118.103 42.8512 117.3 42.9253V43.37H123.316ZM227.721 39.8866V40.3189C227.004 40.3189 227.004 40.566 226.979 42.0606V42.6536C226.089 43.2733 225.026 43.5974 223.941 43.58C223.4 43.5965 222.862 43.5 222.361 43.2969C221.859 43.0937 221.406 42.7882 221.029 42.4C220.653 42.0118 220.361 41.5493 220.173 41.0421C219.986 40.5349 219.906 39.9941 219.938 39.4542C219.898 38.9232 219.967 38.3894 220.142 37.8864C220.317 37.3833 220.594 36.9219 220.956 36.5311C221.318 36.1402 221.757 35.8284 222.245 35.615C222.733 35.4017 223.26 35.2915 223.792 35.2914C224.78 35.2993 225.741 35.6097 226.547 36.1808L226.967 35.7114V38.1819L226.646 38.2437C226.453 37.6355 226.114 37.084 225.658 36.6378C225.448 36.4401 225.202 36.2858 224.933 36.184C224.663 36.0822 224.377 36.0349 224.089 36.0449C222.718 36.0449 221.618 37.2061 221.618 39.4789C221.618 41.2948 222.508 42.8388 224.089 42.8388C224.352 42.8377 224.611 42.7785 224.848 42.6653C225.085 42.5521 225.294 42.3878 225.46 42.1842C225.593 41.9565 225.649 41.6925 225.621 41.4307C225.621 40.4301 225.448 40.4054 224.571 40.3189V39.8866H227.721ZM126.973 39.1331C127.216 39.1867 127.464 39.2157 127.714 39.2195C128.097 39.2276 128.471 39.0971 128.766 38.8521C129.06 38.607 129.257 38.2638 129.32 37.8854C129.32 36.9714 128.912 36.1808 127.454 36.1808C127.294 36.1671 127.133 36.1671 126.973 36.1808V39.1331ZM126.973 40.8501C126.973 42.6659 126.973 42.913 127.936 42.9253V43.37H124.65V42.9253C125.49 42.9253 125.577 42.7277 125.589 41.8753C125.589 41.5542 125.589 41.1836 125.589 40.8624V38.009C125.589 37.0702 125.589 36.7737 125.589 36.4772C125.589 36.1808 125.317 35.9584 124.675 35.909V35.4767H128.245C130.184 35.4767 130.802 36.4031 130.802 37.5025C130.798 37.9693 130.645 38.4225 130.365 38.7959C130.085 39.1693 129.692 39.4433 129.245 39.5778L130.641 42.0483C131.148 42.9747 131.407 43.1847 132.049 43.2835V43.5429H131.531C130.934 43.6038 130.334 43.4527 129.838 43.1163C129.341 42.7798 128.978 42.2793 128.813 41.7024L128.344 40.7636C127.874 39.763 127.726 39.8372 126.973 39.8125V40.8501Z" fill="#011E41"/>
</svg>
